<svg width="30" height="29" viewBox="0 0 30 29" fill="none" xmlns="http://www.w3.org/2000/svg">
<path fill-rule="evenodd" clip-rule="evenodd" d="M5.42634 13.4132C5.42634 19.2115 10.2236 24.1437 16.4234 24.1437C22.6231 24.1437 27.4204 19.2115 27.4204 13.4132C27.4204 7.61486 22.6231 2.68264 16.4234 2.68264C10.2236 2.68264 5.42634 7.61486 5.42634 13.4132ZM7.45291 23.4816C9.84501 25.5635 12.9849 26.8264 16.4234 26.8264C23.9215 26.8264 29.9999 20.8211 29.9999 13.4132C29.9999 6.00528 23.9215 0 16.4234 0C8.92523 0 2.84679 6.00528 2.84679 13.4132C2.84679 16.5954 3.96844 19.5187 5.84244 21.8184L-2.99365e-05 27.3991L1.67582 28.9999L7.45291 23.4816Z" fill="white"/>
</svg>
