<svg width="23" height="19" viewBox="0 0 23 19" fill="none" xmlns="http://www.w3.org/2000/svg">
<path fill-rule="evenodd" clip-rule="evenodd" d="M2.07245 7.78902L13.8864 2.76502C19.5122 0.454824 20.6811 0.0535429 21.4431 0.0403029C21.6107 0.0373829 21.9854 0.0783825 22.2281 0.272823C22.4331 0.436983 22.4894 0.658823 22.5164 0.814423C22.5434 0.970023 22.577 1.3247 22.5503 1.60178C22.2454 4.76418 20.9263 12.4387 20.2552 15.9807C19.9711 17.4795 19.4124 17.9821 18.8707 18.0312C17.6943 18.1381 16.801 17.2636 15.6616 16.5263L11.1407 13.5281C9.14062 12.2269 10.4372 11.5117 11.5771 10.3429C11.8753 10.0369 17.0586 5.38238 17.1589 4.96014C17.171 4.90734 17.1831 4.71054 17.0646 4.60654C16.9462 4.50254 16.7713 4.53854 16.6452 4.56642C16.4664 4.6065 13.6181 6.46514 8.10038 10.1424C7.2919 10.6905 6.55958 10.9576 5.90351 10.9436C5.18019 10.9282 3.78885 10.5399 2.75453 10.2079C1.48586 9.80078 0.477555 9.58551 0.565393 8.89407C0.611094 8.53395 1.11345 8.16566 2.07241 7.7891L2.07245 7.78902Z" fill="white"/>
</svg>
