<svg width="23" height="23" viewBox="0 0 23 23" fill="none" xmlns="http://www.w3.org/2000/svg">
<path d="M17.1996 13.9374C16.9446 13.8106 15.6054 13.0498 15.3504 12.9864C15.0953 12.8596 14.904 12.8596 14.7127 13.1132C14.5214 13.3668 13.9475 14.0008 13.8199 14.1276C13.6286 14.3178 13.5011 14.3178 13.246 14.191C12.9909 14.0642 12.0982 13.7472 11.0779 12.7328C10.3127 11.972 9.73877 11.0844 9.61123 10.7674C9.4837 10.5138 9.61123 10.3236 9.73877 10.1968C9.8663 10.07 9.99384 9.87976 10.1851 9.75296C10.3764 9.62616 10.3764 9.49936 10.504 9.30915C10.6315 9.11895 10.5678 8.99215 10.504 8.80195C10.4402 8.61175 9.93007 7.28034 9.73877 6.70973C9.54746 6.13913 9.29239 6.26593 9.16485 6.20253C8.97355 6.20253 8.84601 6.13913 8.65471 6.13913C8.39964 6.13913 8.0808 6.26593 7.88949 6.45613C7.63442 6.70973 6.8692 7.34374 6.8692 8.67515C6.8692 10.0066 7.76196 11.4014 7.88949 11.5282C8.01703 11.7184 9.675 14.6348 12.417 15.8394C15.1591 17.044 15.1591 16.6636 15.6692 16.6636C16.1793 16.6636 17.3272 16.0296 17.5822 15.459C17.8373 14.825 17.8373 14.2544 17.7736 14.191C17.646 14.191 17.4547 14.1276 17.1996 13.9374ZM12.0982 20.4677C10.3127 20.4677 8.65471 19.9605 7.18804 19.0094L3.74456 20.0873L4.89239 16.7904C3.80833 15.2688 3.17065 13.4302 3.17065 11.5282C3.17065 6.58293 7.18804 2.58869 12.162 2.58869C17.1359 2.58869 21.0895 6.58293 21.0895 11.5282C21.0895 16.4734 17.0721 20.4677 12.0982 20.4677ZM12.0982 0.813477C6.16776 0.813477 1.32138 5.63192 1.32138 11.5282C1.32138 13.4936 1.83152 15.3956 2.85181 17.044L0.875 22.8135L6.8692 20.9115C8.46341 21.7991 10.2489 22.2429 12.0982 22.2429C18.0286 22.2429 22.875 17.4244 22.875 11.5282C22.875 5.63192 18.0924 0.813477 12.0982 0.813477Z" fill="white"/>
</svg>
